<?xml version="1.0" encoding="utf-8"?>
<!-- Generator: Adobe Illustrator 21.1.0, SVG Export Plug-In . SVG Version: 6.00 Build 0)  -->
<svg version="1.1" id="Layer_1" xmlns="http://www.w3.org/2000/svg" xmlns:xlink="http://www.w3.org/1999/xlink" x="0px" y="0px"
	 viewBox="0 0 29.3 18.3" style="enable-background:new 0 0 29.3 18.3;" xml:space="preserve">
<style type="text/css">
	.st0{fill:none;stroke:#FFFFFF;stroke-width:1.25;stroke-linecap:round;stroke-linejoin:round;}
</style>
<title>Family</title>
<g id="Layer_2">
	<g id="Layer_1-2">
		<circle class="st0" cx="5.6" cy="3.6" r="3"/>
		<path class="st0" d="M0.6,17.6v-4c0-2.8,2.2-5,5-5l0,0l0,0c2.8,0,5,2.2,5,5v4"/>
		<circle class="st0" cx="14.6" cy="4.6" r="3"/>
		<path class="st0" d="M13,9.9c0.5-0.2,1.1-0.3,1.6-0.3l0,0c2.8,0,5,2.2,5,5l0,0v3"/>
		<circle class="st0" cx="23.6" cy="6.6" r="3"/>
		<path class="st0" d="M22.3,11.8c0.4-0.1,0.9-0.2,1.3-0.2l0,0c2.8,0,5,2.2,5,5l0,0v1"/>
	</g>
</g>
</svg>
