<?xml version="1.0" encoding="utf-8"?>
<!-- Generator: Adobe Illustrator 21.1.0, SVG Export Plug-In . SVG Version: 6.00 Build 0)  -->
<svg version="1.1" id="Layer_1" xmlns="http://www.w3.org/2000/svg" xmlns:xlink="http://www.w3.org/1999/xlink" x="0px" y="0px"
	 viewBox="0 0 13.3 20.2" style="enable-background:new 0 0 13.3 20.2;" xml:space="preserve">
<style type="text/css">
	.st0{fill:none;stroke:#FFFFFF;stroke-width:1.25;stroke-linecap:round;stroke-linejoin:round;}
</style>
<title>Garden</title>
<g id="Layer_2">
	<g id="Layer_1-2">
		<path class="st0" d="M6.4,11.5c-1.9,0-3.6-1-4.6-2.7c-1-1.6-1.1-3.6-0.3-5.3l0,0c1.9,0,3.6,1,4.6,2.7C7.2,7.8,7.3,9.8,6.4,11.5
			L6.4,11.5z"/>
		<path class="st0" d="M5.9,9.5"/>
		<path class="st0" d="M4.6,2.6c0.4-0.8,1.1-1.5,1.9-2l0,0c0.8,0.5,1.5,1.2,1.9,2"/>
		<path class="st0" d="M6.9,8.4"/>
		<path class="st0" d="M10.3,9.9c1.8-1.5,2.4-4,1.4-6.1l0,0c-1.4,0-2.8,0.7-3.7,1.8"/>
		<path class="st0" d="M11.9,14.5l-1.3,5h-8l-1.3-5"/>
		<path class="st0" d="M0.6,11.6h12"/>
		<line class="st0" x1="4.1" y1="14.5" x2="9.1" y2="14.5"/>
	</g>
</g>
</svg>
