<?xml version="1.0" encoding="utf-8"?>
<!-- Generator: Adobe Illustrator 21.1.0, SVG Export Plug-In . SVG Version: 6.00 Build 0)  -->
<svg version="1.1" id="Layer_1" xmlns="http://www.w3.org/2000/svg" xmlns:xlink="http://www.w3.org/1999/xlink" x="0px" y="0px"
	 viewBox="0 0 25 25" style="enable-background:new 0 0 25 25;" xml:space="preserve">
<style type="text/css">
	.st0{fill:#FFFFFF;}
</style>
<g>
	<g>
		<g>
			<path class="st0" d="M12.5,19.5c-0.1,0-0.2,0-0.3-0.1C9.6,17.8,8,15,8,11.8s1.6-6,4.2-7.6c0.2-0.1,0.4-0.1,0.6,0
				c2.6,1.6,4.2,4.5,4.2,7.6c0,3.1-1.6,6-4.2,7.6C12.7,19.5,12.6,19.5,12.5,19.5z M12.5,5.3c-2.1,1.5-3.3,3.9-3.3,6.5s1.2,5,3.3,6.5
				c2.1-1.5,3.3-3.9,3.3-6.5C15.8,9.2,14.6,6.8,12.5,5.3z"/>
		</g>
	</g>
	<g>
		<g>
			<g>
				<path class="st0" d="M20.4,9c-0.3,0-0.5-0.2-0.5-0.4c-0.1-0.5-0.3-0.9-0.5-1.2c-0.5,0.1-0.9,0.2-1.2,0.3
					c-0.3,0.1-0.6-0.1-0.7-0.4c-0.1-0.3,0.1-0.6,0.4-0.7c0.5-0.1,1-0.3,1.7-0.4c0.2,0,0.4,0,0.6,0.2c0.4,0.5,0.7,1.2,0.9,2
					C21,8.6,20.8,8.9,20.5,9C20.5,9,20.5,9,20.4,9z"/>
			</g>
		</g>
		<g>
			<g>
				<path class="st0" d="M16.1,20.3c-0.3,0-0.6-0.2-0.6-0.6s0.2-0.6,0.6-0.6c1.5,0,3-0.4,4.2-1.2c2.1-1.3,3.4-3.6,3.5-5.9
					c-2.2-0.9-4.7-0.7-6.8,0.6c0,0-0.1,0-0.1,0c-0.1,0.1-0.2,0.2-0.4,0.2c-0.3,0-0.6-0.2-0.6-0.6c0-0.2,0.1-0.4,0.4-0.5
					c0.1,0,0.1-0.1,0.2-0.1c2.5-1.5,5.5-1.7,8.1-0.5c0.2,0.1,0.3,0.3,0.3,0.5c0,2.9-1.5,5.7-4,7.2C19.6,19.8,17.9,20.3,16.1,20.3z"
					/>
			</g>
		</g>
		<g>
			<g>
				<path class="st0" d="M4.6,9c0,0-0.1,0-0.1,0C4.2,8.9,4,8.6,4,8.3c0.2-0.8,0.4-1.4,0.9-2C5,6.2,5.2,6.1,5.4,6.1
					c0.6,0.1,1.1,0.3,1.7,0.4c0.3,0.1,0.5,0.4,0.4,0.7C7.4,7.5,7.1,7.7,6.8,7.6C6.4,7.5,6,7.4,5.6,7.3C5.4,7.7,5.2,8.1,5.1,8.5
					C5.1,8.8,4.8,9,4.6,9z"/>
			</g>
		</g>
		<g>
			<g>
				<path class="st0" d="M8.9,20.3c-1.7,0-3.5-0.5-4.8-1.3c-2.5-1.6-4-4.3-4-7.2c0-0.2,0.1-0.4,0.3-0.5c2.6-1.2,5.7-1,8.2,0.5
					c0,0,0.1,0,0.1,0.1c0.1,0.1,0.3,0.1,0.4,0.3c0.2,0.2,0.2,0.6,0,0.8c-0.2,0.2-0.6,0.2-0.8,0c-0.1-0.1-0.2-0.1-0.3-0.2
					c-2.1-1.3-4.6-1.5-6.8-0.6c0.1,2.4,1.4,4.6,3.5,5.9c1.2,0.8,2.7,1.2,4.2,1.2c0.3,0,0.6,0.2,0.6,0.6S9.2,20.3,8.9,20.3z"/>
			</g>
		</g>
	</g>
</g>
</svg>
