<?xml version="1.0" encoding="utf-8"?>
<!-- Generator: Adobe Illustrator 21.1.0, SVG Export Plug-In . SVG Version: 6.00 Build 0)  -->
<svg version="1.1" id="Layer_1" xmlns="http://www.w3.org/2000/svg" xmlns:xlink="http://www.w3.org/1999/xlink" x="0px" y="0px"
	 viewBox="0 0 25 25" style="enable-background:new 0 0 25 25;" xml:space="preserve">
<style type="text/css">
	.st0{fill:#FFFFFF;}
</style>
<g>
	<g>
		<g>
			<path class="st0" d="M12.5,9.5c-0.2,0-0.4-0.2-0.4-0.4V6.3c0-0.2,0.2-0.4,0.4-0.4s0.4,0.2,0.4,0.4v2.9
				C12.9,9.3,12.7,9.5,12.5,9.5z"/>
		</g>
	</g>
	<g>
		<g>
			<path class="st0" d="M7,10.8c-0.1,0-0.3-0.1-0.4-0.2L5.1,8.2C5,8,5.1,7.8,5.3,7.7c0.2-0.1,0.5-0.1,0.6,0.1l1.5,2.4
				c0.1,0.2,0.1,0.5-0.1,0.6C7.1,10.8,7.1,10.8,7,10.8z"/>
		</g>
	</g>
	<g>
		<g>
			<path class="st0" d="M3.1,14.7c-0.1,0-0.1,0-0.2-0.1l-2.6-1.4c-0.2-0.1-0.3-0.4-0.2-0.6c0.1-0.2,0.4-0.3,0.6-0.2l2.6,1.4
				c0.2,0.1,0.3,0.4,0.2,0.6C3.4,14.6,3.2,14.7,3.1,14.7z"/>
		</g>
	</g>
	<g>
		<g>
			<path class="st0" d="M18,10.8c-0.1,0-0.2,0-0.2-0.1c-0.2-0.1-0.3-0.4-0.1-0.6l1.5-2.4c0.1-0.2,0.4-0.3,0.6-0.1
				C19.9,7.8,20,8,19.9,8.2l-1.5,2.4C18.3,10.8,18.2,10.8,18,10.8z"/>
		</g>
	</g>
	<g>
		<g>
			<path class="st0" d="M21.9,14.7c-0.1,0-0.3-0.1-0.4-0.2c-0.1-0.2,0-0.5,0.2-0.6l2.6-1.4c0.2-0.1,0.5,0,0.6,0.2
				c0.1,0.2,0,0.5-0.2,0.6l-2.6,1.4C22.1,14.7,22,14.7,21.9,14.7z"/>
		</g>
	</g>
	<g>
		<g>
			<g>
				<path class="st0" d="M20.3,18.1c-0.2,0-0.4-0.1-0.4-0.3c-0.9-3.3-3.9-5.5-7.4-5.5c-3.5,0-6.6,2.3-7.4,5.5
					C5,18,4.8,18.1,4.6,18.1c-0.2-0.1-0.4-0.3-0.3-0.5c0.9-3.6,4.3-6.1,8.2-6.1c3.9,0,7.2,2.5,8.2,6.1c0.1,0.2-0.1,0.5-0.3,0.5
					C20.4,18.1,20.4,18.1,20.3,18.1z"/>
			</g>
		</g>
	</g>
</g>
</svg>
