<svg width="72px" height="70px" viewBox="0 0 72 70" version="1.1" xmlns="http://www.w3.org/2000/svg" xmlns:xlink="http://www.w3.org/1999/xlink">
                <g id="Symbols" stroke="none" stroke-width="1" fill="none" fill-rule="evenodd">
                    <g id="homepage" transform="translate(-802.000000, -2158.000000)" fill="#8AA479">
                        <g id="why" transform="translate(275.000000, 2063.000000)">
                            <g id="why3" transform="translate(473.000000, 95.000000)">
                                <path d="M68.6325229,28.9524486 C70.6010923,35.5227262 75.4816468,40.8331858 81.7570221,43.354238 C81.5035461,44.7068121 81.3697769,46.1022238 81.3697769,47.5279052 C81.3697769,53.868771 83.9920752,59.6044213 88.201147,63.6938292 C84.8771316,66.1789473 80.7640362,67.6510067 76.3153752,67.6510067 C65.2967302,67.6510067 56.3326115,58.6239335 56.3326115,47.5279052 C56.3326115,39.1722511 61.4165444,31.9907396 68.6325229,28.9524486 L68.6325229,28.9524486 Z M90.0000879,2.34899329 C101.018733,2.34899329 109.982852,11.3760665 109.982852,22.4719178 C109.982852,23.6350854 109.883184,24.7745331 109.693692,25.8844191 C107.781373,25.3450534 105.766221,25.0559874 103.684976,25.0559874 C98.53161,25.0559874 93.7813091,26.8247245 90.0000879,29.7897311 C86.2188667,26.8247245 81.4685658,25.0559874 76.3153752,25.0559874 C74.2341303,25.0559874 72.2188032,25.3450534 70.3064836,25.8844191 C70.1169919,24.7745331 70.0175,23.6350854 70.0175,22.4719178 C70.0175,11.3760665 78.9816187,2.34899329 90.0000879,2.34899329 L90.0000879,2.34899329 Z M123.667564,47.5279052 C123.667564,58.6239335 114.703446,67.6510067 103.684976,67.6510067 C99.2366669,67.6510067 95.1232199,66.1789473 91.7992046,63.6938292 C96.0082763,59.6044213 98.6312778,53.868771 98.6312778,47.5279052 C98.6312778,46.1022238 98.4966296,44.7075201 98.2433295,43.354238 C104.519232,40.8331858 109.399259,35.5227262 111.367829,28.9524486 C118.583807,31.9907396 123.667564,39.1722511 123.667564,47.5279052 L123.667564,47.5279052 Z M82.3172356,41.0468433 C76.8110771,38.7290047 72.5476891,33.9980933 70.8359355,28.1744663 C72.5779234,27.6731589 74.4160634,27.4049807 76.3153752,27.4049807 C80.7640362,27.4049807 84.8771316,28.8770401 88.201147,31.3614501 C85.4874427,33.9988014 83.4337953,37.3204938 82.3172356,41.0468433 L82.3172356,41.0468433 Z M92.0045166,35.0780638 L87.9965381,35.0780638 C88.6103647,34.2960101 89.2804412,33.5610425 90.000791,32.8786484 C90.7204377,33.5610425 91.3905142,34.2960101 92.0045166,35.0780638 L92.0045166,35.0780638 Z M91.7992046,31.3614501 C95.1232199,28.8770401 99.2361396,27.4049807 103.684976,27.4049807 C105.584112,27.4049807 107.422252,27.6731589 109.164416,28.1744663 C107.452487,33.9980933 103.189099,38.7290047 97.6836434,41.0468433 C96.5665562,37.3204938 94.5132605,33.9988014 91.7992046,31.3614501 L91.7992046,31.3614501 Z M85.6639266,38.8369841 C85.8933206,38.3556794 86.1418747,37.8862348 86.4076553,37.427057 L93.5926963,37.427057 C93.8583011,37.8862348 94.1068552,38.3556794 94.3362492,38.8369841 L85.6639266,38.8369841 Z M95.280368,41.1858003 C95.3505045,41.3975107 95.4171254,41.6111681 95.480055,41.8255337 C93.7382428,42.3268411 91.8993997,42.5950193 90.0000879,42.5950193 C88.1009519,42.5950193 86.2628119,42.3268411 84.5206481,41.8255337 C84.5839292,41.6111681 84.6505502,41.3975107 84.7205109,41.1858003 L95.280368,41.1858003 Z M90.0000879,62.177339 C86.1253513,58.5049792 83.7022126,53.2961264 83.7022126,47.5279052 C83.7022126,46.3649146 83.8018804,45.2247589 83.9913721,44.1155809 C85.9036916,44.6549466 87.918843,44.9440126 90.0000879,44.9440126 C92.081157,44.9440126 94.097363,44.6549466 96.0096826,44.1155809 C96.1991743,45.2247589 96.2986663,46.3649146 96.2986663,47.5279052 C96.2979631,53.2961264 93.8748245,58.5049792 90.0000879,62.177339 L90.0000879,62.177339 Z M54,47.5279052 C54,59.9189776 64.0107177,70 76.3153752,70 C81.4685658,70 86.2188667,68.2310859 90.0000879,65.2660793 C93.782188,68.2310859 98.53161,70 103.684976,70 C115.989634,70 126,59.9189776 126,47.5279052 C126,38.0673215 120.164428,29.9543553 111.928042,26.645762 C112.181518,25.2924799 112.315287,23.8977762 112.315287,22.4719178 C112.315287,10.0808454 102.304745,0 90.0000879,0 C77.6954304,0 67.6848885,10.0808454 67.6848885,22.4719178 C67.6848885,23.8977762 67.8188335,25.2924799 68.0728367,26.645762 C59.8359233,29.9543553 54,38.0673215 54,47.5279052 L54,47.5279052 Z" id="balance"></path>
                            </g>
                        </g>
                    </g>
                </g>
            </svg>