<svg width="65px" height="70px" viewBox="0 0 65 70" version="1.1" xmlns="http://www.w3.org/2000/svg" xmlns:xlink="http://www.w3.org/1999/xlink">
                <g id="Symbols" stroke="none" stroke-width="1" fill="none" fill-rule="evenodd">
                    <g id="homepage" transform="translate(-1043.000000, -2158.000000)" fill="#8AA479">
                        <g id="why" transform="translate(275.000000, 2063.000000)">
                            <g id="why4" transform="translate(710.000000, 95.000000)">
                                <path d="M74.5722094,26.6690308 C71.3911868,26.6690308 68.4555844,25.2269837 66.526891,22.7636432 C67.1449036,21.9645188 67.5130338,20.9639042 67.5130338,19.8797199 L67.5130338,16.501898 C67.5130338,15.5011126 67.7268754,14.5145117 68.1358517,13.6113097 L74.9228341,13.6113097 C75.4941654,13.6113097 76.0049138,13.2573775 76.2026229,12.7233176 C76.54398,11.804051 76.8014137,10.8560734 76.9730362,9.89083496 C79.7056093,10.8808538 81.6315567,13.5164606 81.6315567,16.501898 L81.6315567,19.8797199 C81.6315567,20.9639042 81.9996869,21.9645188 82.6176994,22.7636432 C80.6890061,25.2269837 77.7534036,26.6690308 74.5722094,26.6690308 L74.5722094,26.6690308 Z M74.6587071,33.0970609 L74.4549913,33.0970609 C72.9124485,33.0970609 71.3978801,31.2318675 71.3978801,29.3312979 C71.3978801,29.2137193 71.3826057,29.099046 71.3537732,28.9881324 C72.3902013,29.2504626 73.469535,29.3873529 74.5722094,29.3873529 C75.6167038,29.3873529 76.6397454,29.2644764 77.6253733,29.0288064 C77.5326971,31.005597 76.0304856,33.0970609 74.6587071,33.0970609 L74.6587071,33.0970609 Z M66.1319877,11.5623996 C65.2496766,13.0552038 64.7830351,14.7628282 64.7830351,16.5025816 L64.7830351,19.8797199 C64.7830351,20.5233262 64.4787484,21.09806 64.0061001,21.4678858 C63.965254,21.4940334 63.9262957,21.5220608 63.8893968,21.5519682 C63.5664034,21.7703773 63.1761338,21.8978681 62.7565169,21.8978681 C61.6389113,21.8978681 60.7298271,20.9926153 60.7298271,19.8797199 L60.7298271,16.501898 C60.7298271,8.95687105 66.6635025,2.90396462 74.2384037,2.72178612 C74.5220957,2.71512105 74.8129958,2.71768454 75.1280946,2.72981838 C82.5789127,3.02410673 88.4147634,9.07308248 88.4147634,16.501898 L88.4147634,19.8797199 C88.4147634,20.9926153 87.5056791,21.8978681 86.3880736,21.8978681 C85.9684566,21.8978681 85.5781871,21.7703773 85.2545071,21.5519682 C85.2176083,21.5220608 85.1793365,21.4940334 85.1391768,21.4678858 C84.665842,21.09806 84.3615554,20.5233262 84.3615554,19.8797199 L84.3615554,16.501898 C84.3615554,11.7045877 80.772243,7.55959952 76.0136666,6.85942567 C75.6395296,6.80405434 75.2586993,6.90608114 74.9631654,7.14106748 C74.6674599,7.37605383 74.4831374,7.72195373 74.4529318,8.09776098 C74.3786193,9.04761851 74.2056238,9.9843168 73.9373779,10.8935003 L67.3077733,10.8935003 C66.8244844,10.8935003 66.3772362,11.1477983 66.1319877,11.5623996 L66.1319877,11.5623996 Z M82.197396,30.5516888 C82.5950453,29.9140641 82.3985375,29.0763164 81.7583857,28.680343 C81.3427161,28.422798 80.9122869,28.1896916 80.4698441,27.9820491 C82.1565498,27.1236226 83.6481208,25.8940031 84.8328307,24.3552271 C85.3202385,24.5240755 85.8436871,24.6155065 86.3887601,24.6155065 C89.0113231,24.6155065 91.1445905,22.49123 91.1445905,19.8797199 L91.1445905,16.501898 C91.1445905,12.2087403 89.4980444,8.14253656 86.5073512,5.05285065 C83.5254107,1.97205151 79.5218016,0.182908209 75.2346722,0.0140598392 L75.2339857,0.0140598392 C74.8612217,-0.000637488549 74.5147159,-0.00388457258 74.1733588,0.00466038539 C69.9049362,0.107541679 65.8791878,1.82712902 62.8370078,4.84794256 C59.7175977,7.94548983 58,12.083813 58,16.5025816 L58,19.8797199 C58,22.49123 60.1339539,24.6161901 62.7565169,24.6161901 C63.3009034,24.6161901 63.8245236,24.5240755 64.3117598,24.3559107 C65.6164338,26.050205 67.2943868,27.3705719 69.194934,28.2324163 C64.9834901,30.4375282 62.3791191,34.7065892 62.3791191,39.4343435 L62.3791191,50.5588534 C62.3791191,51.0194267 62.6130405,51.4487253 63.0012505,51.6990926 L75.3820959,59.6985405 C75.61207,59.8473936 75.8695037,59.9181459 76.1241915,59.9181459 C76.5707531,59.9181459 77.0085621,59.6992241 77.2699431,59.2986364 C77.6802924,58.6692148 77.5006037,57.8273656 76.8683465,57.4187457 L65.1089462,49.8205691 L65.1089462,39.4343435 C65.1089462,36.2901408 66.5790643,33.4027995 69.04219,31.5396569 C69.8869159,33.9809514 72.0562239,35.8146993 74.4549913,35.8146993 L74.6587071,35.8146993 C77.2639363,35.8146993 79.3427994,33.4668867 80.0756273,30.8434137 C80.1568048,30.8907528 80.2371241,30.939459 80.317615,30.9888489 C80.9579385,31.3853349 81.7992318,31.1891427 82.197396,30.5516888 L82.197396,30.5516888 Z M92.0006434,67.0318234 L83.1849117,61.4429082 L83.1849117,57.2326365 C83.1849117,54.2437811 84.7006814,51.5155469 87.1550544,49.9072149 C88.008533,51.8452114 90.0182322,53.047487 91.9263308,53.047487 L92.0924614,53.047487 C94.1519311,53.047487 95.9728456,51.7131063 96.7592197,49.8585087 C99.2491186,51.4574412 100.796295,54.2072087 100.810368,57.238618 L100.831135,61.4764044 L92.0006434,67.0318234 Z M94.420177,48.1749811 C94.2499275,49.4606554 93.1168759,50.3298486 92.0924614,50.3298486 L91.9263308,50.3298486 C90.8408187,50.3298486 89.6362005,49.4158798 89.4800241,48.1515679 C90.2864781,48.3511781 91.1298309,48.4566229 91.9973825,48.4566229 C92.8312962,48.4566229 93.6425556,48.3592103 94.420177,48.1749811 L94.420177,48.1749811 Z M84.2649319,38.0384392 C84.2649319,37.1552324 84.4151016,36.306718 84.6907273,35.5163094 C86.9432723,36.2345986 89.4417523,36.6105767 91.998069,36.6105767 C94.5535277,36.6105767 97.0521793,36.2345986 99.3047243,35.5163094 C99.5801784,36.306718 99.730348,37.1552324 99.730348,38.0384392 C99.730348,42.2842579 96.2616862,45.7389844 91.9973825,45.7389844 C87.7335938,45.7389844 84.2649319,42.2842579 84.2649319,38.0384392 L84.2649319,38.0384392 Z M91.9973825,30.3380649 C94.3731525,30.3380649 96.501786,31.4101153 97.9216188,33.0938138 C96.0821691,33.6191578 94.065605,33.8920838 91.998069,33.8920838 C89.9298466,33.8920838 87.912596,33.6191578 86.0736612,33.0938138 C87.4936656,31.4101153 89.6221275,30.3380649 91.9973825,30.3380649 L91.9973825,30.3380649 Z M97.2874737,47.0246588 C100.379939,45.2122732 102.460347,41.8623079 102.460347,38.0384392 C102.460347,36.3174847 102.03867,34.6925755 101.293829,33.2606114 C101.266884,33.2006258 101.236164,33.1432037 101.202011,33.0890287 C99.4300087,29.834596 95.9687266,27.6202556 91.9973825,27.6202556 C88.0258669,27.6202556 84.5632118,29.8352796 82.7920679,33.0910794 C82.759288,33.1438873 82.7290824,33.1999422 82.7029958,33.2585606 C81.9567813,34.6905247 81.5351049,36.3168011 81.5351049,38.0384392 C81.5351049,41.8616243 83.6146544,45.210906 86.7066049,47.0232916 C82.8792521,48.9934171 80.4550846,52.9041026 80.4550846,57.2319529 L80.4550846,62.1893957 C80.4550846,62.6538996 80.6936399,63.0859327 81.0871702,63.3356164 L91.2652411,69.7875723 C91.4885219,69.9292477 91.7432097,70 91.998069,70 C92.2506973,70 92.5041837,69.930444 92.7267781,69.7903067 L102.928876,63.3716761 C103.326354,63.1213088 103.56714,62.6846615 103.564394,62.2167396 L103.540367,57.2259714 C103.519429,52.8873545 101.098008,48.9899991 97.2874737,47.0246588 L97.2874737,47.0246588 Z M118.405791,12.2526613 C117.10043,12.2526613 116.039289,11.1959918 116.039289,9.89613283 L116.039289,9.14041675 C116.039289,8.64583458 115.768983,8.19055922 115.334607,7.9507877 C114.899544,7.71118708 114.368544,7.72588441 113.94824,7.98889821 C111.546899,9.49024733 108.682863,10.2840739 105.666083,10.2840739 C104.486178,10.2840739 103.313654,10.1598302 102.181975,9.91612803 C101.779177,9.82879856 101.358187,9.92826187 101.036395,10.1859778 C100.715289,10.4442064 100.528221,10.8328311 100.528221,11.2440145 L100.528221,12.068432 C100.528221,13.3676075 99.4669075,14.424277 98.1624051,14.424277 C98.0724749,14.424277 97.9846042,14.4196627 97.8969051,14.4095796 C97.8768253,14.4070161 97.8565738,14.4042818 97.8358075,14.402231 C97.805602,14.3983003 97.775568,14.3930024 97.7453625,14.3882172 C97.7412435,14.2714931 97.7400422,14.1552817 97.7400422,14.0390703 C97.7400422,12.1538816 98.2145783,10.287321 99.1137085,8.63985311 C99.1176558,8.63318804 99.1210882,8.62703567 99.1243491,8.6217378 C99.1356761,8.601059 100.368612,6.47285177 102.150568,5.08634689 C102.154515,5.0836125 102.159321,5.08036542 102.160007,5.07968182 C104.165073,3.53492432 106.567787,2.71836814 109.108658,2.71836814 C110.827457,2.71836814 112.478809,3.09024471 114.016031,3.8245984 C114.042804,3.83724493 114.082277,3.85536024 114.133936,3.87740624 C115.651765,4.54886903 116.81691,5.63578769 117.531546,6.43610845 C117.539612,6.44482431 117.547678,6.45422376 117.555745,6.46345232 C118.8436,7.88618782 119.743931,9.60047729 120.178308,11.4496062 C119.731746,11.9535878 119.086274,12.2526613 118.405791,12.2526613 L118.405791,12.2526613 Z M108.910949,23.052121 C104.795957,23.052121 101.14692,20.6113392 99.548085,16.9517046 C101.443312,16.4183284 102.892664,14.8168323 103.198323,12.8455105 C104.012844,12.9495881 104.838176,13.0017124 105.666083,13.0017124 C108.442248,13.0017124 111.116469,12.4223642 113.511118,11.312716 C114.128616,13.4236624 116.089574,14.9704707 118.405791,14.9704707 C118.574667,14.9704707 118.742343,14.9617548 118.908473,14.9456903 C117.946529,19.562702 113.816778,23.052121 108.910949,23.052121 L108.910949,23.052121 Z M108.829772,28.8585909 L108.626571,28.8585909 C106.992896,28.8585909 105.613223,27.2825588 105.613223,25.4159982 C105.613223,25.3932686 105.612537,25.3698554 105.611164,25.3466131 C106.669731,25.6236407 107.776525,25.7704431 108.911464,25.7704431 C109.881646,25.7704431 110.828144,25.6629475 111.738601,25.458723 C111.632023,27.2958889 110.318768,28.8585909 108.829772,28.8585909 L108.829772,28.8585909 Z M122.977814,11.5070283 C122.51203,8.96216893 121.344139,6.59641186 119.601141,4.66371327 C119.597709,4.65978259 119.594963,4.65568101 119.591016,4.65243392 C118.69875,3.64840136 117.219193,2.26839065 115.241416,1.39321606 L115.196622,1.37390445 C113.287837,0.461986536 111.239866,4.61080883e-05 109.108658,4.61080883e-05 C105.95767,4.61080883e-05 102.977788,1.01279453 100.489949,2.9294286 C100.487203,2.93130849 100.475876,2.94002435 100.47313,2.94207514 C98.3347141,4.60492396 96.922776,6.98161857 96.7484075,7.28393918 C96.7403413,7.29726932 96.7329615,7.31059945 96.7257534,7.32392958 C95.6033424,9.37283961 95.01073,11.6946756 95.01073,14.0390703 C95.01073,14.5257911 95.0363017,15.0191769 95.0872736,15.5038469 C95.1341265,15.9570715 95.4063198,16.356292 95.8118637,16.5671815 C96.0679244,16.7008247 96.3361703,16.8122509 96.6116244,16.9004349 C97.7105231,20.2476658 100.109119,22.9253138 103.15885,24.4305936 C101.851602,25.0955623 100.677018,25.9746675 99.6620423,27.050136 C99.1451154,27.5968424 99.1718885,28.4568069 99.7210804,28.9713843 C100.270101,29.485449 101.133533,29.4587887 101.649774,28.9120823 C102.138555,28.3952832 102.672129,27.9367608 103.248609,27.538224 C104.074628,29.8692885 106.203776,31.5770838 108.625884,31.5770838 L108.829772,31.5770838 C111.255999,31.5770838 113.383088,29.7465829 114.160709,27.270425 C117.042765,29.0696513 118.886505,32.2746942 118.886505,35.7032731 L118.886505,49.8205691 L106.473223,57.8413793 C105.840451,58.2499992 105.660763,59.0918485 106.071112,59.7212701 C106.332493,60.1225413 106.770302,60.3407795 107.217378,60.3407795 C107.471551,60.3407795 107.728985,60.2693437 107.958959,60.1211741 L120.994201,51.698409 C121.381725,51.4480418 121.616333,51.0187431 121.616333,50.5588534 L121.616333,35.7032731 C121.616333,30.8907528 118.917912,26.5762326 114.653437,24.4239286 C118.692057,22.4172306 121.547855,18.3664079 121.827428,13.6485657 C122.212206,13.3007859 122.547556,12.8923369 122.81563,12.43296 C122.9785,12.153198 123.036165,11.8247298 122.977814,11.5070283 L122.977814,11.5070283 Z" id="family"></path>
                            </g>
                        </g>
                    </g>
                </g>
            </svg>