<svg width="44px" height="70px" viewBox="0 0 44 70" version="1.1" xmlns="http://www.w3.org/2000/svg" xmlns:xlink="http://www.w3.org/1999/xlink">
                <g id="Symbols" stroke="none" stroke-width="1" fill="none" fill-rule="evenodd">
                    <g id="homepage" transform="translate(-580.000000, -2158.000000)" fill="#8AA479">
                        <g id="why" transform="translate(275.000000, 2063.000000)">
                            <g id="why2" transform="translate(237.000000, 95.000000)">
                                <path d="M106.190529,33.5155689 C103.097881,38.0423488 101.463391,43.2441809 101.463391,48.5581228 L101.463391,51.7905117 L95.498045,51.7905117 L95.498045,39.0204054 L93.7433523,39.0204054 L93.7433523,28.2771644 L97.2613597,24.7216051 L95.6064136,23.0493557 L91.404213,27.2970571 L91.404213,39.0204054 L88.5969415,39.0204054 L88.5969415,27.2970571 L84.3940647,23.0493557 L82.7399639,24.7216051 L86.2569569,28.2771644 L86.2569569,39.0204054 L84.5022643,39.0204054 L84.5022643,51.7905117 L78.5370871,51.7905117 L78.5370871,48.7090269 C78.5370871,43.2701576 76.9130793,38.0317531 73.8402116,33.5596609 C71.5289675,30.1956797 70.3183158,26.2431213 70.3401248,22.1294049 C70.3977749,11.308063 79.1539937,2.4412961 89.8588189,2.36524592 C95.1420008,2.33123697 100.108192,4.37724305 103.853418,8.13634344 C107.598476,11.8954438 109.660861,16.9043306 109.660861,22.2389514 C109.660861,26.2937075 108.461029,30.1931162 106.190529,33.5155689 L106.190529,33.5155689 Z M86.8422489,51.7905117 L93.1582294,51.7905117 L93.1582294,41.3856513 L86.8422489,41.3856513 L86.8422489,51.7905117 Z M78.5370871,56.5203199 L101.463391,56.5203199 L101.463391,54.1557576 L78.5370871,54.1557576 L78.5370871,56.5203199 Z M93.2632168,67.6354377 L86.7372615,67.6354377 C83.7594067,67.6354377 81.1477397,66.0218067 79.7112214,63.6152032 L100.289257,63.6152032 C98.8529077,66.0218067 96.2409026,67.6354377 93.2632168,67.6354377 L93.2632168,67.6354377 Z M101.242766,61.2499573 L78.7575437,61.2499573 C78.6150246,60.6384797 78.5370871,60.0010254 78.5370871,59.3461394 L78.5370871,58.8853949 L101.463391,58.8853949 L101.463391,59.3461394 C101.463391,60.0010254 101.385454,60.6384797 101.242766,61.2499573 L101.242766,61.2499573 Z M105.501095,6.45811259 C101.348429,2.28970845 95.8500317,0 90.0016762,0 C89.9487598,0 89.8951672,0 89.8422509,0.000683597088 C77.8626995,0.085449636 68.0650599,10.0070069 68.0003092,22.1167584 C67.9764715,26.7197594 69.3311639,31.1429743 71.918486,34.9089107 C74.7178115,38.9829784 76.1977787,43.7548279 76.1977787,48.7090269 L76.1977787,59.3454558 C76.1977787,65.2208019 80.9257615,70 86.7372615,70 L93.2632168,70 C99.0747168,70 103.803207,65.2208019 103.803207,59.3454558 L103.803207,48.5581228 C103.803207,43.7261168 105.294332,38.9891308 108.115636,34.8593499 C110.656635,31.1397272 112,26.7758143 112,22.2389514 C112,16.2694398 109.691968,10.6644564 105.501095,6.45811259 L105.501095,6.45811259 Z" id="bulb"></path>
                            </g>
                        </g>
                    </g>
                </g>
            </svg>