<svg width="50px" height="70px" viewBox="0 0 50 70" version="1.1" xmlns="http://www.w3.org/2000/svg" xmlns:xlink="http://www.w3.org/1999/xlink">
                <g id="Symbols" stroke="none" stroke-width="1" fill="none" fill-rule="evenodd">
                    <g id="homepage" transform="translate(-340.000000, -2158.000000)" fill="#8AA479">
                        <g id="why" transform="translate(275.000000, 2063.000000)">
                            <g id="why1" transform="translate(0.000000, 95.000000)">
                                <path d="M83.8914119,34.1540849 L77.555579,27.7835096 C77.157178,27.3836076 76.5113062,27.3836076 76.1129052,27.7835096 C75.7151841,28.1840951 75.7151841,28.8336795 76.1129052,29.2340942 L82.449418,35.6048404 C78.7088002,35.8437562 74.8566844,34.3704421 72.0357541,31.5331888 C68.8879786,28.3683235 67.4266086,23.9136888 68.1370676,19.7639367 C72.2646987,19.0497528 76.6952097,20.5189653 79.8421353,23.6840015 C82.6639155,26.5204004 84.1285149,30.39381 83.8914119,34.1540849 L83.8914119,34.1540849 Z M82.6234635,5.1521334 C82.2250625,4.75171872 81.5790207,4.75171872 81.1812996,5.1521334 C80.7828987,5.55271898 80.7828987,6.20230336 81.1812996,6.60220534 L83.8841034,9.31982985 C82.5636354,9.08945897 81.2916077,8.43662752 80.2869371,7.42661866 C78.8495323,5.98133187 78.1372036,3.98592351 78.3450723,2.08536369 C80.2352673,1.87635509 82.2203035,2.5927607 83.6571984,4.03804749 C84.7864544,5.17349568 85.4663195,6.64886057 85.6056918,8.15088559 L82.6234635,5.1521334 Z M98.0623504,16.5595939 C100.061494,14.5496591 102.848771,13.5849383 105.47526,13.9588638 C105.846296,16.5990714 104.887006,19.402145 102.887863,21.4122506 C101.234091,23.0744074 99.0403364,24.0210129 96.8453919,24.0871506 L99.4407769,21.4763375 C99.8391779,21.0757519 99.8391779,20.4261675 99.4407769,20.0257529 C99.0416961,19.6258509 98.3963342,19.6258509 97.9981032,20.0262656 L95.4013584,22.6393003 C95.4664555,20.4309527 96.4078987,18.2239723 98.0623504,16.5595939 L98.0623504,16.5595939 Z M113.979522,67.9487079 L111.530988,67.9487079 C109.509239,63.9331109 105.408123,61.3732255 100.899428,61.3732255 C100.463804,61.3732255 100.007105,61.4031327 99.5143723,61.4653397 C99.0869072,61.118758 98.6393859,60.7942221 98.1792872,60.4973718 C97.7059311,60.1914639 97.0745064,60.3295497 96.7704367,60.8063559 C96.4663671,61.2823076 96.6036998,61.9171948 97.0772259,62.2229318 C97.5889943,62.5532782 98.0830863,62.9231021 98.5457345,63.3216369 C98.7721296,63.5166318 99.0716102,63.6020809 99.3670116,63.556622 C99.9360587,63.4672422 100.437289,63.4240049 100.900107,63.4240049 C104.276827,63.4240049 107.378032,65.1574262 109.181204,67.9487079 L70.8179457,67.9487079 C72.6212879,65.1574262 75.7224927,63.4240049 79.0998926,63.4240049 C79.5620309,63.4240049 80.0639413,63.4672422 80.6329884,63.556622 C80.9270301,63.6027645 81.2271905,63.5166318 81.4535856,63.3216369 C83.8377026,61.2676104 86.8726205,60.1360928 89.9996601,60.1360928 C91.1622294,60.1360928 92.3154506,60.2895595 93.4268601,60.5920495 C93.9705822,60.7402183 94.5309611,60.4170496 94.677642,59.8705169 C94.8251727,59.3236424 94.5037665,58.7601908 93.9600443,58.6127055 C93.0012645,58.351573 92.01597,58.1866561 91.0194577,58.1193222 L91.0194577,33.1548426 C91.0194577,31.0879988 91.8201689,29.1440308 93.2728707,27.681996 L94.9398999,26.0044584 C95.4863415,26.0965726 96.0387319,26.1420316 96.5918022,26.1420316 C99.4049141,26.1420316 102.229924,24.9737709 104.330537,22.8621517 C106.98694,20.1911824 108.141521,16.3546868 107.344209,12.8505884 C107.256506,12.4667509 106.958385,12.1676789 106.577321,12.0794953 C103.092332,11.2778115 99.2767595,12.4387235 96.6203565,15.1096928 C94.1060454,17.6377911 92.9382071,21.2092235 93.4965463,24.5557537 L91.8301969,26.2327785 C91.5380249,26.5265527 91.2691382,26.8375876 91.0194577,27.1607562 L91.0194577,18.5591038 C91.0194577,15.3699709 89.7885619,12.3712187 87.5529955,10.110918 C88.019213,7.44798095 87.0995255,4.59876476 85.0998722,2.58729195 C83.0031682,0.479774312 79.9894961,-0.436069593 77.2341727,0.197450346 C76.8524285,0.284950268 76.5549875,0.584705858 76.4674549,0.968543404 C75.8373899,3.73829189 76.7475593,6.76831847 78.8442633,8.8765197 C80.5021144,10.5434616 82.7322419,11.4647742 84.9543811,11.4647742 C85.2876849,11.4647742 85.6203089,11.4420447 85.9517432,11.3993202 L86.0858466,11.5348425 C87.9520763,13.410793 88.9798624,15.9053952 88.9798624,18.5591038 L88.9798624,39.8405544 C88.3989177,38.8806188 87.6998464,37.9840864 86.8897871,37.169756 L85.7166798,35.9900452 C86.6135919,31.1367048 84.9452029,25.9149077 81.2848091,22.2339296 C77.4819836,18.4100805 72.0250462,16.7472402 67.0435046,17.893455 C66.6617603,17.9809549 66.3643193,18.2807105 66.2767867,18.664548 C65.1368229,23.6732349 66.7905947,29.1600952 70.5935902,32.9839444 C73.6011435,36.0079895 77.6439614,37.6809128 81.6679131,37.6809128 C82.5410299,37.6809128 83.4134668,37.6007615 84.2745159,37.4401171 L85.4477932,38.6194862 C87.7256812,40.9100359 88.9798624,43.9556142 88.9798624,47.1944785 L88.9798624,58.1232528 C85.8852864,58.3343122 82.9154656,59.4977877 80.4854577,61.4653397 C79.9922155,61.4031327 79.5355162,61.3732255 79.0998926,61.3732255 C74.5911971,61.3732255 70.4907606,63.9331109 68.4683319,67.9492206 L66.0197977,67.9492206 C65.4568694,67.9492206 65,68.4080825 65,68.9746103 C65,69.5407963 65.4568694,70 66.0197977,70 L113.980202,70 C114.543131,70 115,69.5407963 115,68.9746103 C115,68.4080825 114.543131,67.9487079 113.979522,67.9487079 L113.979522,67.9487079 Z" id="tree"></path>
                            </g>
                        </g>
                    </g>
                </g>
            </svg>